<svg width="141" height="30" viewBox="0 0 141 30" fill="none" xmlns="http://www.w3.org/2000/svg">
<path d="M26.7983 15.1818C26.7983 18.1955 26.227 20.7595 25.0845 22.8736C23.951 24.9877 22.4036 26.6025 20.4425 27.718C18.4903 28.8246 16.2952 29.3778 13.8572 29.3778C11.4013 29.3778 9.19721 28.8201 7.24503 27.7045C5.29285 26.589 3.75 24.9742 2.61648 22.8601C1.48295 20.746 0.916193 18.1866 0.916193 15.1818C0.916193 12.1681 1.48295 9.60417 2.61648 7.49006C3.75 5.37595 5.29285 3.76562 7.24503 2.65909C9.19721 1.54356 11.4013 0.985794 13.8572 0.985794C16.2952 0.985794 18.4903 1.54356 20.4425 2.65909C22.4036 3.76562 23.951 5.37595 25.0845 7.49006C26.227 9.60417 26.7983 12.1681 26.7983 15.1818ZM20.8743 15.1818C20.8743 13.2296 20.5819 11.5833 19.9972 10.2429C19.4214 8.90246 18.6072 7.88589 17.5547 7.19318C16.5021 6.50047 15.2697 6.15412 13.8572 6.15412C12.4448 6.15412 11.2124 6.50047 10.1598 7.19318C9.10724 7.88589 8.28859 8.90246 7.70384 10.2429C7.12808 11.5833 6.8402 13.2296 6.8402 15.1818C6.8402 17.134 7.12808 18.7803 7.70384 20.1207C8.28859 21.4612 9.10724 22.4777 10.1598 23.1705C11.2124 23.8632 12.4448 24.2095 13.8572 24.2095C15.2697 24.2095 16.5021 23.8632 17.5547 23.1705C18.6072 22.4777 19.4214 21.4612 19.9972 20.1207C20.5819 18.7803 20.8743 17.134 20.8743 15.1818ZM36.3084 29L28.4007 1.36364H34.7836L39.3581 20.5661H39.5875L44.6344 1.36364H50.0996L55.133 20.6065H55.3759L59.9505 1.36364H66.3333L58.4256 29H52.731L47.4682 10.9311H47.2523L42.003 29H36.3084ZM93.2983 15.1818C93.2983 18.1955 92.727 20.7595 91.5845 22.8736C90.451 24.9877 88.9036 26.6025 86.9425 27.718C84.9903 28.8246 82.7952 29.3778 80.3572 29.3778C77.9013 29.3778 75.6972 28.8201 73.745 27.7045C71.7929 26.589 70.25 24.9742 69.1165 22.8601C67.983 20.746 67.4162 18.1866 67.4162 15.1818C67.4162 12.1681 67.983 9.60417 69.1165 7.49006C70.25 5.37595 71.7929 3.76562 73.745 2.65909C75.6972 1.54356 77.9013 0.985794 80.3572 0.985794C82.7952 0.985794 84.9903 1.54356 86.9425 2.65909C88.9036 3.76562 90.451 5.37595 91.5845 7.49006C92.727 9.60417 93.2983 12.1681 93.2983 15.1818ZM87.3743 15.1818C87.3743 13.2296 87.0819 11.5833 86.4972 10.2429C85.9214 8.90246 85.1072 7.88589 84.0547 7.19318C83.0021 6.50047 81.7697 6.15412 80.3572 6.15412C78.9448 6.15412 77.7124 6.50047 76.6598 7.19318C75.6072 7.88589 74.7886 8.90246 74.2038 10.2429C73.6281 11.5833 73.3402 13.2296 73.3402 15.1818C73.3402 17.134 73.6281 18.7803 74.2038 20.1207C74.7886 21.4612 75.6072 22.4777 76.6598 23.1705C77.7124 23.8632 78.9448 24.2095 80.3572 24.2095C81.7697 24.2095 83.0021 23.8632 84.0547 23.1705C85.1072 22.4777 85.9214 21.4612 86.4972 20.1207C87.0819 18.7803 87.3743 17.134 87.3743 15.1818ZM97.6266 29V1.36364H108.53C110.626 1.36364 112.412 1.76397 113.887 2.56463C115.363 3.3563 116.487 4.45833 117.261 5.87074C118.044 7.27415 118.435 8.89347 118.435 10.7287C118.435 12.5639 118.039 14.1832 117.247 15.5866C116.456 16.9901 115.309 18.0831 113.806 18.8658C112.313 19.6484 110.505 20.0398 108.382 20.0398H101.432V15.3572H107.437C108.561 15.3572 109.488 15.1638 110.217 14.777C110.954 14.3812 111.503 13.8369 111.863 13.1442C112.232 12.4425 112.416 11.6373 112.416 10.7287C112.416 9.81108 112.232 9.01042 111.863 8.3267C111.503 7.63399 110.954 7.09872 110.217 6.72088C109.479 6.33404 108.544 6.14062 107.41 6.14062H103.47V29H97.6266ZM122.23 29V1.36364H140.852V6.18111H128.073V12.7663H139.894V17.5838H128.073V24.1825H140.906V29H122.23Z" fill="white"/>
</svg>
